<svg xmlns="http://www.w3.org/2000/svg" width="360" height="360" viewBox="0 0 360 360"><rect x="0" y="315" width="45" height="45" fill="#b58863"/><rect x="45" y="315" width="45" height="45" fill="#f0d9b5"/><rect x="90" y="315" width="45" height="45" fill="#b58863"/><rect x="135" y="315" width="45" height="45" fill="#f0d9b5"/><rect x="180" y="315" width="45" height="45" fill="#b58863"/><rect x="225" y="315" width="45" height="45" fill="#f0d9b5"/><rect x="270" y="315" width="45" height="45" fill="#b58863"/><rect x="315" y="315" width="45" height="45" fill="#f0d9b5"/><rect x="0" y="270" width="45" height="45" fill="#f0d9b5"/><rect x="45" y="270" width="45" height="45" fill="#b58863"/><rect x="90" y="270" width="45" height="45" fill="#f0d9b5"/><rect x="135" y="270" width="45" height="45" fill="#b58863"/><rect x="180" y="270" width="45" height="45" fill="#f0d9b5"/><rect x="225" y="270" width="45" height="45" fill="#b58863"/><rect x="270" y="270" width="45" height="45" fill="#f0d9b5"/><rect x="315" y="270" width="45" height="45" fill="#b58863"/><rect x="0" y="225" width="45" height="45" fill="#b58863"/><rect x="45" y="225" width="45" height="45" fill="#f0d9b5"/><rect x="90" y="225" width="45" height="45" fill="#b58863"/><rect x="135" y="225" width="45" height="45" fill="#f0d9b5"/><rect x="180" y="225" width="45" height="45" fill="#b58863"/><rect x="225" y="225" width="45" height="45" fill="#f0d9b5"/><rect x="270" y="225" width="45" height="45" fill="#b58863"/><rect x="315" y="225" width="45" height="45" fill="#f0d9b5"/><rect x="0" y="180" width="45" height="45" fill="#f0d9b5"/><rect x="45" y="180" width="45" height="45" fill="#b58863"/><rect x="90" y="180" width="45" height="45" fill="#f0d9b5"/><rect x="135" y="180" width="45" height="45" fill="#b58863"/><rect x="180" y="180" width="45" height="45" fill="#f0d9b5"/><rect x="225" y="180" width="45" height="45" fill="#b58863"/><rect x="270" y="180" width="45" height="45" fill="#f0d9b5"/><rect x="315" y="180" width="45" height="45" fill="#b58863"/><rect x="0" y="135" width="45" height="45" fill="#b58863"/><rect x="45" y="135" width="45" height="45" fill="#f0d9b5"/><rect x="90" y="135" width="45" height="45" fill="#b58863"/><rect x="135" y="135" width="45" height="45" fill="#f0d9b5"/><rect x="180" y="135" width="45" height="45" fill="#b58863"/><rect x="225" y="135" width="45" height="45" fill="#f0d9b5"/><rect x="270" y="135" width="45" height="45" fill="#b58863"/><rect x="315" y="135" width="45" height="45" fill="#f0d9b5"/><rect x="0" y="90" width="45" height="45" fill="#f0d9b5"/><rect x="45" y="90" width="45" height="45" fill="#b58863"/><rect x="90" y="90" width="45" height="45" fill="#f0d9b5"/><rect x="135" y="90" width="45" height="45" fill="#b58863"/><rect x="180" y="90" width="45" height="45" fill="#f0d9b5"/><rect x="225" y="90" width="45" height="45" fill="#b58863"/><rect x="270" y="90" width="45" height="45" fill="#f0d9b5"/><rect x="315" y="90" width="45" height="45" fill="#b58863"/><rect x="0" y="45" width="45" height="45" fill="#b58863"/><rect x="45" y="45" width="45" height="45" fill="#f0d9b5"/><rect x="90" y="45" width="45" height="45" fill="#b58863"/><rect x="135" y="45" width="45" height="45" fill="#f0d9b5"/><rect x="180" y="45" width="45" height="45" fill="#b58863"/><rect x="225" y="45" width="45" height="45" fill="#f0d9b5"/><rect x="270" y="45" width="45" height="45" fill="#b58863"/><rect x="315" y="45" width="45" height="45" fill="#f0d9b5"/><rect x="0" y="0" width="45" height="45" fill="#f0d9b5"/><rect x="45" y="0" width="45" height="45" fill="#b58863"/><rect x="90" y="0" width="45" height="45" fill="#f0d9b5"/><rect x="135" y="0" width="45" height="45" fill="#b58863"/><rect x="180" y="0" width="45" height="45" fill="#f0d9b5"/><rect x="225" y="0" width="45" height="45" fill="#b58863"/><rect x="270" y="0" width="45" height="45" fill="#f0d9b5"/><rect x="315" y="0" width="45" height="45" fill="#b58863"/><rect x="270" y="0" width="45" height="45" fill="#eb3b3b" fill-opacity="0.5"/><g transform="translate(135 315)"><g style="opacity:1;fill:#ffffff;fill-opacity:1;fill-rule:evenodd;stroke:#000000;stroke-width:1.5;stroke-linecap:round;stroke-linejoin:round;stroke-miterlimit:4;stroke-dasharray:none;stroke-opacity:1"><path d="M 9,39 L 36,39 L 36,36 L 9,36 L 9,39 z" style="stroke-linecap:butt"/><path d="M 12,36 L 12,32 L 33,32 L 33,36 L 12,36 z" style="stroke-linecap:butt"/><path d="M 11,14 L 11,9 L 15,9 L 15,11 L 20,11 L 20,9 L 25,9 L 25,11 L 30,11 L 30,9 L 34,9 L 34,14" style="stroke-linecap:butt"/><path d="M 34,14 L 31,17 L 14,17 L 11,14"/><path d="M 31,17 L 31,29.5 L 14,29.5 L 14,17" style="stroke-linecap:butt;stroke-linejoin:miter"/><path d="M 14,29.5 L 12.5,32 L 32.5,32 L 31,29.5"/><path d="M 11,14 L 34,14" style="fill:none;stroke:#000000;stroke-linejoin:miter"/></g></g><g transform="translate(270 315)"><g style="fill:none;fill-opacity:1;fill-rule:evenodd;stroke:#000000;stroke-width:1.5;stroke-linecap:round;stroke-linejoin:round;stroke-miterlimit:4;stroke-dasharray:none;stroke-opacity:1"><path d="M 22.5,11.63 L 22.5,6" style="fill:none;stroke:#000000;stroke-linejoin:miter"/><path d="M 20,8 L 25,8" style="fill:none;stroke:#000000;stroke-linejoin:miter"/><path d="M 22.5,25 C 22.5,25 27,17.5 25.5,14.5 C 25.5,14.5 24.5,12 22.5,12 C 20.5,12 19.5,14.5 19.5,14.5 C 18,17.5 22.5,25 22.5,25" style="fill:#ffffff;stroke:#000000;stroke-linecap:butt;stroke-linejoin:miter"/><path d="M 12.5,37 C 18,40.5 27,40.5 32.5,37 L 32.5,30 C 32.5,30 41.5,25.5 38.5,19.5 C 34.5,13 25,16 22.5,23.5 L 22.5,27 L 22.5,23.5 C 20,16 10.5,13 6.5,19.5 C 3.5,25.5 12.5,30 12.5,30 L 12.5,37" style="fill:#ffffff;stroke:#000000"/><path d="M 12.5,30 C 18,27 27,27 32.5,30" style="fill:none;stroke:#000000"/><path d="M 12.5,33.5 C 18,30.5 27,30.5 32.5,33.5" style="fill:none;stroke:#000000"/><path d="M 12.5,37 C 18,34 27,34 32.5,37" style="fill:none;stroke:#000000"/></g></g><g transform="translate(225 270)"><g><path d="m 22.5,9 c -2.21,0 -4,1.79 -4,4 0,0.89 0.29,1.71 0.78,2.38 C 17.33,16.5 16,18.59 16,21 c 0,2.03 0.94,3.84 2.41,5.03 C 15.41,27.09 11,31.58 11,39.5 H 34 C 34,31.58 29.59,27.09 26.59,26.03 28.06,24.84 29,23.03 29,21 29,18.59 27.67,16.5 25.72,15.38 26.21,14.71 26.5,13.89 26.5,13 c 0,-2.21 -1.79,-4 -4,-4 z" style="opacity:1;fill:#ffffff;fill-opacity:1;fill-rule:nonzero;stroke:#000000;stroke-width:1.5;stroke-linecap:round;stroke-linejoin:miter;stroke-miterlimit:4;stroke-dasharray:none;stroke-opacity:1"/></g></g><g transform="translate(270 270)"><g><path d="m 22.5,9 c -2.21,0 -4,1.79 -4,4 0,0.89 0.29,1.71 0.78,2.38 C 17.33,16.5 16,18.59 16,21 c 0,2.03 0.94,3.84 2.41,5.03 C 15.41,27.09 11,31.58 11,39.5 H 34 C 34,31.58 29.59,27.09 26.59,26.03 28.06,24.84 29,23.03 29,21 29,18.59 27.67,16.5 25.72,15.38 26.21,14.71 26.5,13.89 26.5,13 c 0,-2.21 -1.79,-4 -4,-4 z" style="opacity:1;fill:#ffffff;fill-opacity:1;fill-rule:nonzero;stroke:#000000;stroke-width:1.5;stroke-linecap:round;stroke-linejoin:miter;stroke-miterlimit:4;stroke-dasharray:none;stroke-opacity:1"/></g></g><g transform="translate(315 270)"><g><path d="m 22.5,9 c -2.21,0 -4,1.79 -4,4 0,0.89 0.29,1.71 0.78,2.38 C 17.33,16.5 16,18.59 16,21 c 0,2.03 0.94,3.84 2.41,5.03 C 15.41,27.09 11,31.58 11,39.5 H 34 C 34,31.58 29.59,27.09 26.59,26.03 28.06,24.84 29,23.03 29,21 29,18.59 27.67,16.5 25.72,15.38 26.21,14.71 26.5,13.89 26.5,13 c 0,-2.21 -1.79,-4 -4,-4 z" style="opacity:1;fill:#ffffff;fill-opacity:1;fill-rule:nonzero;stroke:#000000;stroke-width:1.5;stroke-linecap:round;stroke-linejoin:miter;stroke-miterlimit:4;stroke-dasharray:none;stroke-opacity:1"/></g></g><g transform="translate(225 45)"><g><path d="m 22.5,9 c -2.21,0 -4,1.79 -4,4 0,0.89 0.29,1.71 0.78,2.38 C 17.33,16.5 16,18.59 16,21 c 0,2.03 0.94,3.84 2.41,5.03 C 15.41,27.09 11,31.58 11,39.5 H 34 C 34,31.58 29.59,27.09 26.59,26.03 28.06,24.84 29,23.03 29,21 29,18.59 27.67,16.5 25.72,15.38 26.21,14.71 26.5,13.89 26.5,13 c 0,-2.21 -1.79,-4 -4,-4 z" style="opacity:1;fill:#000000;fill-opacity:1;fill-rule:nonzero;stroke:#000000;stroke-width:1.5;stroke-linecap:round;stroke-linejoin:miter;stroke-miterlimit:4;stroke-dasharray:none;stroke-opacity:1"/></g></g><g transform="translate(270 45)"><g><path d="m 22.5,9 c -2.21,0 -4,1.79 -4,4 0,0.89 0.29,1.71 0.78,2.38 C 17.33,16.5 16,18.59 16,21 c 0,2.03 0.94,3.84 2.41,5.03 C 15.41,27.09 11,31.58 11,39.5 H 34 C 34,31.58 29.59,27.09 26.59,26.03 28.06,24.84 29,23.03 29,21 29,18.59 27.67,16.5 25.72,15.38 26.21,14.71 26.5,13.89 26.5,13 c 0,-2.21 -1.79,-4 -4,-4 z" style="opacity:1;fill:#000000;fill-opacity:1;fill-rule:nonzero;stroke:#000000;stroke-width:1.5;stroke-linecap:round;stroke-linejoin:miter;stroke-miterlimit:4;stroke-dasharray:none;stroke-opacity:1"/></g></g><g transform="translate(315 45)"><g><path d="m 22.5,9 c -2.21,0 -4,1.79 -4,4 0,0.89 0.29,1.71 0.78,2.38 C 17.33,16.5 16,18.59 16,21 c 0,2.03 0.94,3.84 2.41,5.03 C 15.41,27.09 11,31.58 11,39.5 H 34 C 34,31.58 29.59,27.09 26.59,26.03 28.06,24.84 29,23.03 29,21 29,18.59 27.67,16.5 25.72,15.38 26.21,14.71 26.5,13.89 26.5,13 c 0,-2.21 -1.79,-4 -4,-4 z" style="opacity:1;fill:#000000;fill-opacity:1;fill-rule:nonzero;stroke:#000000;stroke-width:1.5;stroke-linecap:round;stroke-linejoin:miter;stroke-miterlimit:4;stroke-dasharray:none;stroke-opacity:1"/></g></g><g transform="translate(270 0)"><g style="fill:none;fill-opacity:1;fill-rule:evenodd;stroke:#000000;stroke-width:1.5;stroke-linecap:round;stroke-linejoin:round;stroke-miterlimit:4;stroke-dasharray:none;stroke-opacity:1"><path d="M 22.5,11.63 L 22.5,6" style="fill:none;stroke:#000000;stroke-linejoin:miter"/><path d="M 22.5,25 C 22.5,25 27,17.5 25.5,14.5 C 25.5,14.5 24.5,12 22.5,12 C 20.5,12 19.5,14.5 19.5,14.5 C 18,17.5 22.5,25 22.5,25" style="fill:#000000;fill-opacity:1;stroke-linecap:butt;stroke-linejoin:miter"/><path d="M 12.5,37 C 18,40.5 27,40.5 32.5,37 L 32.5,30 C 32.5,30 41.5,25.5 38.5,19.5 C 34.5,13 25,16 22.5,23.5 L 22.5,27 L 22.5,23.5 C 20,16 10.5,13 6.5,19.5 C 3.5,25.5 12.5,30 12.5,30 L 12.5,37" style="fill:#000000;stroke:#000000"/><path d="M 20,8 L 25,8" style="fill:none;stroke:#000000;stroke-linejoin:miter"/><path d="M 32,29.5 C 32,29.5 40.5,25.5 38.03,19.85 C 34.15,14 25,18 22.5,24.5 L 22.5,26.6 L 22.5,24.5 C 20,18 10.85,14 6.97,19.85 C 4.5,25.5 13,29.5 13,29.5" style="fill:none;stroke:#ffffff"/><path d="M 12.5,30 C 18,27 27,27 32.5,30 M 12.5,33.5 C 18,30.5 27,30.5 32.5,33.5 M 12.5,37 C 18,34 27,34 32.5,37" style="fill:none;stroke:#ffffff"/></g></g><text x="4" y="325" font-family="sans-serif" font-size="6" fill="#f0d9b5">1</text><text x="41" y="356" font-family="sans-serif" font-size="6" fill="#f0d9b5" text-anchor="end">a</text><text x="86" y="356" font-family="sans-serif" font-size="6" fill="#b58863" text-anchor="end">b</text><text x="131" y="356" font-family="sans-serif" font-size="6" fill="#f0d9b5" text-anchor="end">c</text><text x="176" y="356" font-family="sans-serif" font-size="6" fill="#b58863" text-anchor="end">d</text><text x="221" y="356" font-family="sans-serif" font-size="6" fill="#f0d9b5" text-anchor="end">e</text><text x="266" y="356" font-family="sans-serif" font-size="6" fill="#b58863" text-anchor="end">f</text><text x="311" y="356" font-family="sans-serif" font-size="6" fill="#f0d9b5" text-anchor="end">g</text><text x="356" y="356" font-family="sans-serif" font-size="6" fill="#b58863" text-anchor="end">h</text><text x="4" y="280" font-family="sans-serif" font-size="6" fill="#b58863">2</text><text x="4" y="235" font-family="sans-serif" font-size="6" fill="#f0d9b5">3</text><text x="4" y="190" font-family="sans-serif" font-size="6" fill="#b58863">4</text><text x="4" y="145" font-family="sans-serif" font-size="6" fill="#f0d9b5">5</text><text x="4" y="100" font-family="sans-serif" font-size="6" fill="#b58863">6</text><text x="4" y="55" font-family="sans-serif" font-size="6" fill="#f0d9b5">7</text><text x="4" y="10" font-family="sans-serif" font-size="6" fill="#b58863">8</text></svg>